<?xml version="1.0" encoding="UTF-8"?>
<svg id="Lag_2" data-name="Lag 2" xmlns="http://www.w3.org/2000/svg" version="1.1" viewBox="0 0 841.89 595.28">
  <defs>
    <style>
      .cls-1 {
        fill: #1d1d1b;
      }

      .cls-1, .cls-2 {
        stroke-width: 0px;
      }

      .cls-2 {
        fill: #fff;
      }
    </style>
  </defs>
  <g>
    <path class="cls-2" d="M447.46,310.61c31.72-26.26,66.1-49.3,102.44-68.66,6.82-3.63,14.11-7.23,21.83-6.88,12.65.57,22.56,11.71,27,23.57,4.45,11.86,4.96,24.79,7.92,37.1,2.01,8.34,5.14,16.36,8.25,24.35,6.14,15.75,12.29,31.49,18.43,47.24,1.98,5.07,4.06,10.3,7.94,14.1,3.3,3.23,7.62,5.16,11.85,7.02,17.41,7.68,34.83,15.35,52.24,23.03.13,4.18-5.17,6-9.33,6.45-22.54,2.41-45.47,1.21-67.63-3.54"/>
    <path class="cls-1" d="M451.71,314.85c19.46-16.06,39.9-30.9,61.21-44.41,10.48-6.65,21.17-12.98,32.04-18.98,9.5-5.25,21.8-13.99,32.99-8.81,21.29,9.86,18.78,41.11,24.36,60,3.74,12.67,9.11,24.91,13.91,37.2,4.55,11.67,8.68,23.63,13.8,35.07,2.66,5.94,6.33,10.96,11.84,14.54,5.29,3.43,11.51,5.62,17.25,8.15,14.41,6.35,28.82,12.7,43.23,19.06l-2.97-5.18c.14-1.62.31-.36-1-.16-.92.14-1.83.51-2.77.66-2.93.49-6.02.55-8.97.74-6.28.39-12.59.5-18.88.34-12.71-.33-25.3-1.86-37.74-4.47-7.53-1.58-10.76,9.98-3.19,11.57,16.55,3.47,33.46,5.24,50.38,4.93,10.87-.2,32.84,1.61,34.18-13.62.17-1.88-1.22-4.41-2.97-5.18-13.21-5.82-26.42-11.65-39.63-17.47-5.61-2.47-11.34-4.76-16.82-7.49-6.12-3.04-9.28-7-11.89-13.28-5.32-12.76-10.07-25.79-15.1-38.66-4.96-12.71-10.52-25.38-13.29-38.79-4.42-21.42-5.81-48.53-28.9-58.89-11.42-5.12-22.91-1.64-33.5,3.79-11.56,5.93-22.84,12.49-33.92,19.27-25.24,15.44-49.3,32.74-72.12,51.57-5.96,4.92,2.57,13.37,8.49,8.49h0Z"/>
  </g>
  <g>
    <path class="cls-2" d="M625.93,411.01c-6.77,2.32-14.2-2.69-17.51-9.04s-3.76-13.74-5.09-20.78c-1.64-8.65-4.68-16.96-7.71-25.23-2.78-7.6-5.57-15.19-8.35-22.79-4.73-12.91-9.8-26.34-19.9-35.68-2.22-2.05-4.91-3.96-7.93-3.93-4.18.05-7.31,3.68-9.85,6.99-12.41,16.17-24.83,32.35-37.24,48.52"/>
    <path class="cls-1" d="M624.33,405.22c-14.04,3.8-14.66-24.33-16.7-32.05-3.94-14.91-10.07-29.39-15.42-43.83-4.63-12.51-9.81-25.43-19.47-34.99-4.52-4.47-10.34-8.07-16.91-6.23s-10.09,7.65-13.85,12.54c-11.61,15.13-23.23,30.26-34.84,45.39-4.7,6.12,5.72,12.11,10.36,6.06,12.36-16.11,24.24-32.77,37.17-48.42,2.89-3.49,4.57-5.25,8.43-1.95,3.18,2.72,5.74,6.23,7.93,9.76,4.22,6.81,7.11,14.29,9.87,21.78,6.57,17.78,14.4,35.63,17.44,54.42,1.27,7.87,2.8,15.94,8.25,22.11,5.28,5.98,13.07,9.1,20.91,6.98,7.45-2.01,4.29-13.59-3.19-11.57h0Z"/>
  </g>
  <g>
    <path class="cls-2" d="M504.87,360.92c2.38.43,4.17-2.15,4.84-4.47s1.09-5.04,3.13-6.33"/>
    <path class="cls-1" d="M504.87,366.92c3.9.34,7.41-2.31,9.24-5.58.79-1.42,1.28-2.93,1.7-4.48.16-.6.31-1.21.52-1.79-.25.48-.21.41.11-.22-.15.21-.34.36-.58.46,2.61-1.91,3.91-5.21,2.15-8.21-1.51-2.58-5.58-4.08-8.21-2.15-2.79,2.05-4.36,4.51-5.32,7.83-.14.5-.27,1-.41,1.5-.04.13-.32,1.77-.19.76l-.28.51c.4-.41.36-.37-.11.13.58-.22,2.92-.61,1.38-.75-3.23-.28-6,2.96-6,6,0,3.48,2.76,5.72,6,6h0Z"/>
  </g>
  <g>
    <path class="cls-2" d="M506.92,370.26c8.92,9.34,23.46,9.28,36.15,11.71,18.86,3.62,37.46,14.08,56.16,9.72"/>
    <path class="cls-1" d="M502.68,374.5c12.06,11.87,29.47,10.7,44.79,14.62,17.72,4.53,34.71,12.27,53.36,8.36,7.55-1.58,4.36-13.15-3.19-11.57-16.01,3.36-31.78-4.47-46.98-8.36-12.62-3.23-29.61-1.81-39.49-11.53-5.51-5.42-14,3.06-8.49,8.49h0Z"/>
  </g>
  <g>
    <path class="cls-2" d="M612.15,412.49c-11.94,7.61-24.39,14.87-38.17,18.11-11.65,2.74-23.76,2.48-35.72,2.21-10.89-.25-21.82-.49-32.61-2.08-25.72-3.78-50.02-15.06-75.91-17.42"/>
    <path class="cls-1" d="M609.13,407.31c-12.57,7.97-25.59,15.59-40.43,18.28-15.73,2.85-32.82,1.56-48.7.58-31.01-1.91-59.44-15.79-90.25-18.85-7.68-.76-7.63,11.24,0,12,15.74,1.56,30.88,6.44,46.04,10.72s31.6,7.56,48.05,8.34,32.98,1.73,48.97-1.4c15.41-3.01,29.27-10.99,42.37-19.31,6.5-4.13.49-14.52-6.06-10.36h0Z"/>
  </g>
  <g>
    <path class="cls-2" d="M607.78,415.93c4.9.39,9.87-.11,14.59-1.47"/>
    <path class="cls-1" d="M607.78,421.93c5.45.37,10.92-.24,16.18-1.68,7.44-2.04,4.28-13.62-3.19-11.57-4.31,1.18-8.53,1.55-12.99,1.25-3.24-.22-6,2.91-6,6,0,3.43,2.75,5.78,6,6h0Z"/>
  </g>
  <g>
    <path class="cls-2" d="M504.18,366.08"/>
    <path class="cls-1" d="M504.18,372.08c7.72,0,7.73-12,0-12s-7.73,12,0,12h0Z"/>
  </g>
  <g>
    <path class="cls-2" d="M421.78,313.47l-33.37,4.63c13.32,3.2,26.98-3.38,40.68-3.46,3.17-.02,6.36.32,9.5-.13,3.14-.45,6.33-1.83,8.06-4.49l-16.42,2.28c-2.74.6-5.57.97-8.44,1.17Z"/>
    <path class="cls-1" d="M420.18,307.69c-11.12,1.54-22.24,3.08-33.37,4.63-5.92.82-5.53,10.42,0,11.57,11.65,2.44,22.58-.67,34.05-2.51,9.91-1.58,22.91,2.03,30.02-7.11,3.81-4.91.29-10.88-5.84-10.03-7.71,1.07-15.52,2.59-23.27,3.23s-7.71,12.64,0,12c8.82-.73,17.69-2.45,26.46-3.66l-5.84-10.03c-2.85,3.66-7.2,2.91-11.41,2.88-4.49-.03-8.88.42-13.31,1.14-9.13,1.49-18.38,4.45-27.67,2.51v11.57c11.12-1.54,22.24-3.08,33.37-4.63,7.62-1.06,4.37-12.62-3.19-11.57Z"/>
  </g>
  <g>
    <path class="cls-2" d="M423.58,415.4c-22.88-2.74-46.07-2.92-69-.54"/>
    <path class="cls-1" d="M423.58,409.4c-22.93-2.68-46.02-2.86-69-.54-7.61.77-7.69,12.78,0,12,22.97-2.32,46.06-2.13,69,.54,7.66.89,7.59-11.11,0-12h0Z"/>
  </g>
  <g>
    <path class="cls-2" d="M378.04,318.46c.02,4.55,3.92,7.96,7.13,11.19,3.63,3.64,6.74,7.8,9.2,12.32.87,1.59,1.68,3.31,1.63,5.13-.05,1.75-.88,3.36-1.72,4.9-13.71,25.24-32.49,47.71-54.9,65.67"/>
    <path class="cls-1" d="M372.04,318.46c1,10.3,10.25,15.39,15.41,23.58,1.28,2.02,2.71,3.73,2.06,6.05s-2.53,4.71-3.73,6.77c-2.7,4.62-5.57,9.13-8.61,13.54-11.71,16.99-26,32.07-42.04,45.03-6.01,4.86,2.53,13.3,8.49,8.49,17.29-13.97,32.4-30.45,44.87-48.85,3-4.43,5.84-8.97,8.5-13.61s5.92-9.67,4.68-15.29c-1.1-4.99-4.65-9.68-7.74-13.6-1.58-2-3.27-3.88-5.06-5.69-1.64-1.65-4.59-3.9-4.83-6.4-.74-7.62-12.74-7.69-12,0h0Z"/>
  </g>
  <g>
    <path class="cls-2" d="M340.65,420.06c-17.08,11.35-38.14,16.59-58.55,14.55-1.45-2.89.02-6.55,2.49-8.64s5.68-3.03,8.75-4.02c21.33-6.92,41.28-20.33,52.17-39.93,6.42-11.54,9.44-24.62,12.38-37.49"/>
    <path class="cls-1" d="M337.62,414.88c-16.59,10.79-35.82,15.5-55.52,13.73l5.79,4.4c-1.4-3.97,8.06-5.59,10.67-6.53,4.58-1.66,9.08-3.57,13.43-5.76,8.86-4.46,17.18-10.22,24.32-17.12,16.2-15.66,22.48-36.1,27.37-57.49,1.72-7.52-9.84-10.73-11.57-3.19-2.68,11.72-5.3,23.75-10.92,34.48-4.88,9.31-11.93,17.32-20.27,23.69-8.11,6.2-17.37,10.99-27,14.33-4.92,1.71-10.26,2.99-14.07,6.79-3.66,3.66-5.27,9.04-3.53,13.99.95,2.71,2.98,4.15,5.79,4.4,21.6,1.94,43.41-3.55,61.58-15.37,6.45-4.2.44-14.59-6.06-10.36h0Z"/>
  </g>
  <g>
    <path class="cls-2" d="M355.36,344.07c-6.77-.76-10.76-7.65-15.28-12.75-3.77-4.26-8.46-7.59-13.1-10.89-4.13-2.92-8.25-5.85-12.38-8.77"/>
    <path class="cls-1" d="M356.95,338.28c-7.13-1.25-11.19-10.27-16.25-14.82-7.07-6.36-15.34-11.5-23.08-16.99-6.31-4.47-12.31,5.93-6.06,10.36,8.2,5.81,17.52,11.17,24.27,18.72,5.23,5.85,9.58,12.84,17.93,14.3,7.55,1.32,10.8-10.24,3.19-11.57h0Z"/>
  </g>
  <g>
    <path class="cls-2" d="M378.76,316.57c-7.83-9.11-16.66-17.34-26.3-24.51-10.45-7.77-22.14-14.39-34.99-16.5-4.91-.81-10.05-.92-14.75.71-13.27,4.59-18.79,20.99-31.12,27.72"/>
    <path class="cls-1" d="M383,312.33c-16.09-18.52-38.17-37.93-63.11-42.4-11.49-2.06-21.88-.12-30.63,7.86-7.27,6.63-12.03,15.99-20.7,21.02-6.68,3.87-.64,14.25,6.06,10.36,7.94-4.6,13.06-11.92,19.02-18.66,6.92-7.83,14.18-10.91,24.72-8.69,22.36,4.72,41.6,22.24,56.15,38.99,5.07,5.84,13.53-2.68,8.49-8.49h0Z"/>
  </g>
  <g>
    <path class="cls-2" d="M286.43,415.87c-13.18-5.34-26.61-10.74-40.78-11.88-15.78-1.28-31.45,2.8-47.22,4.13-15.73,1.32-31.69-.11-46.94-4.22-1.72-.46-3.51-1.01-4.77-2.26-2.29-2.27-2.09-5.97-1.64-9.16,3.45-24.48,12.13-48.21,25.29-69.14"/>
    <path class="cls-1" d="M288.03,410.08c-17.36-7.02-34.71-13.18-53.72-12.2-18.75.96-36.84,5.62-55.75,4.45-4.83-.3-9.62-.86-14.38-1.72-2.18-.39-4.34-.85-6.49-1.35-1.51-.35-4.72-.51-5.89-1.52-2.3-1.99-.33-7.76.2-10.64.74-4.05,1.62-8.08,2.65-12.07,4.42-17.25,11.51-33.55,20.91-48.66,4.09-6.58-6.29-12.61-10.36-6.06-8.04,12.94-14.52,26.84-19.18,41.35-2.34,7.28-4.21,14.72-5.58,22.25-1.13,6.17-3.21,13.91.28,19.7s11.45,6.8,17.49,8.03c7.94,1.61,16.05,2.59,24.15,2.87,16.63.57,32.65-3.19,49.14-4.44,19.09-1.45,35.94,4.53,53.36,11.59,7.16,2.9,10.27-8.71,3.19-11.57h0Z"/>
  </g>
  <g>
    <path class="cls-2" d="M244.96,364.83c-7.55,3.82-15.73,6.26-23.96,8.23-14.72,3.52-29.93,5.6-45,4.18-.59-5.78-.87-11.71.72-17.3,1.24-4.35,3.56-8.31,5.86-12.2,2.37-4.02,4.78-8.09,8.16-11.31s7.91-5.52,12.56-5.18"/>
    <path class="cls-1" d="M241.93,359.65c-19.65,9.63-44.24,13.43-65.93,11.59l6,6c-.88-9.13-.15-16.21,4.48-24.27,3.69-6.44,8.2-15.81,16.83-15.72,7.72.08,7.73-11.92,0-12-12.16-.12-19.75,9.11-25.46,18.71-2.86,4.8-5.75,9.77-7.12,15.23-1.49,5.92-1.3,12.02-.72,18.05.33,3.45,2.49,5.7,6,6,23.84,2.02,50.46-2.67,71.99-13.23,6.93-3.4.86-13.75-6.06-10.36h0Z"/>
  </g>
  <g>
    <path class="cls-2" d="M178.71,302.37c1.2,2.29-1.64,4.45-3.72,5.98-2.87,2.11-4.99,5.22-5.9,8.66"/>
    <path class="cls-1" d="M172.92,303.97c-.65-1.81,1.39-2.72-.97-.8-1.34,1.09-2.68,2.05-3.82,3.36-2.27,2.61-3.86,5.58-4.84,8.89-2.2,7.42,9.38,10.59,11.57,3.19,2.02-6.79,12.68-9.29,9.63-17.83-1.09-3.05-4.09-5.1-7.38-4.19-2.95.81-5.29,4.31-4.19,7.38h0Z"/>
  </g>
  <g>
    <path class="cls-2" d="M247.04,362.37c.87-4.96,0-10.2-2.4-14.62"/>
    <path class="cls-1" d="M252.82,363.96c1.03-6.8.16-13.1-3-19.24-3.54-6.87-13.89-.8-10.36,6.06,1.56,3.03,2.31,6.59,1.79,9.99-.48,3.2.81,6.45,4.19,7.38,2.84.78,6.89-.97,7.38-4.19h0Z"/>
  </g>
  <g>
    <path class="cls-2" d="M239.47,282.17c10.34-10.8,23.85-18.52,38.4-21.96,2-.47,4.27-.82,5.97.33,3.21,2.17,1.63,7.19-.54,10.4-6.6,9.75-15.85,17.68-26.5,22.71"/>
    <path class="cls-1" d="M243.72,286.41c9.47-9.69,21.63-17.26,34.97-20.22.75-.21,1.5-.35,2.28-.42-.84-1.68-1.32-1.91-1.45-.71-.4.19-1.94,3.66-2.31,4.18-1.87,2.63-4.04,5.07-6.34,7.33-5.02,4.96-10.76,8.82-17.09,11.91-6.94,3.38-.86,13.74,6.06,10.36,9.09-4.44,17.38-10.72,23.86-18.52,5.05-6.08,12.66-17.14,4.4-24.02-7.37-6.14-20.22.3-27.6,3.67-9.46,4.32-17.99,10.54-25.25,17.96-5.4,5.53,3.07,14.02,8.49,8.49h0Z"/>
  </g>
  <g>
    <path class="cls-2" d="M262.63,294.05c4.2-.95,8.01,3.94,7.25,8.17s-4.65,7.3-8.73,8.69"/>
    <path class="cls-1" d="M264.22,299.84c-1.28.17-.11.66-.39,1.8-.41,1.69-2.86,2.96-4.29,3.49-3.03,1.13-5.1,4.06-4.19,7.38.8,2.92,4.33,5.33,7.38,4.19,6.76-2.52,13.3-7.88,13.22-15.76-.09-8.19-7.11-13.74-14.92-12.68-3.21.44-4.97,4.56-4.19,7.38.95,3.47,4.16,4.63,7.38,4.19h0Z"/>
  </g>
  <g>
    <path class="cls-2" d="M242.2,345.9c-26.6-14.27-54.38-29.6-70.49-55.12-4.36-6.9-7.81-14.66-8-22.82-.31-13.19,8.51-25.73,20.46-31.33s26.38-4.68,38.31.95,21.49,15.58,28.17,26.96"/>
    <path class="cls-1" d="M245.23,340.72c-23.85-12.8-49.69-26.37-65.7-49.02-8.03-11.36-13.68-25.04-5.78-37.99,7.34-12.04,21.9-16.72,35.38-14.18,15.98,3.02,28.22,14.47,36.36,28.03,3.97,6.61,14.35.59,10.36-6.06-8.59-14.31-21.06-26.48-37.13-31.87s-34.49-2.97-47.34,8.38c-12.32,10.89-16.74,27.99-11.01,43.4s17.94,29.14,30.85,39.61c14.73,11.94,31.31,21.11,47.96,30.04,6.8,3.65,12.87-6.7,6.06-10.36h0Z"/>
  </g>
  <g>
    <path class="cls-2" d="M191.48,273.44c-5.8.59-7.4,9.26-3.74,13.79s9.91,5.83,15.65,6.84c2.25.4,4.81.72,6.61-.68.86-.67,1.41-1.65,1.84-2.65,2.77-6.45.6-14.65-4.99-18.89s-14.07-4.11-19.54.29"/>
    <path class="cls-1" d="M191.48,270.94c-6.42.8-9.13,7.41-7.87,13.24,1.49,6.89,8.75,10.07,14.95,11.48,3.37.77,7.61,2.02,10.98.77,3.62-1.35,5.24-5.24,5.76-8.83,1-6.91-1.76-14.02-7.48-18.13-6.63-4.77-16-4.04-22.28.9-1.06.83-.87,2.66,0,3.54,1.05,1.05,2.47.84,3.54,0,3.81-3,9.57-3.48,13.93-1.46s7.31,6.7,7.52,11.58c.1,2.23-.22,4.85-1.5,6.74-1.4,2.06-4.77.94-6.77.56-2.55-.48-5.16-1.04-7.54-2.07-2.21-.95-4.51-2.54-5.57-4.43-.9-1.61-1.08-3.76-.6-5.57.17-.62.27-.9.46-1.24.11-.19.21-.37.32-.55.17-.24.19-.28.05-.11.1-.13.21-.26.33-.38.47-.5.38-.41.84-.68.02-.01.74-.31.32-.16.1-.03.97-.23.62-.19,1.34-.17,2.5-1.03,2.5-2.5,0-1.22-1.15-2.67-2.5-2.5h0Z"/>
  </g>
  <g>
    <path class="cls-2" d="M219.47,256.36c-1.87,5.71-.07,12.44,4.4,16.46s11.35,5.1,16.83,2.64c1.13-.5,2.2-1.15,3.05-2.06,1.37-1.47,2-3.5,2.23-5.49.72-6.3-2.6-12.96-8.22-15.92s-13.19-1.79-17.44,2.91"/>
    <path class="cls-1" d="M217.06,255.69c-1.92,6.15-.32,13.1,4,17.86s11.55,6.73,17.83,5.17c3.27-.81,6.56-2.6,8.15-5.69s1.77-6.45,1.28-9.72c-.92-6.18-5.05-11.79-10.86-14.18-6.36-2.61-14.22-1.05-18.92,4.01-2.19,2.35,1.34,5.9,3.54,3.54,2.94-3.16,7.52-4.48,11.72-3.49s7.78,4.56,9.11,8.83c.66,2.12.9,4.44.42,6.62-.56,2.54-2.07,4.05-4.52,4.89-4.4,1.51-9.67.67-13.18-2.48-3.88-3.5-5.3-9.07-3.75-14.03.96-3.08-3.86-4.39-4.82-1.33h0Z"/>
  </g>
  <g>
    <path class="cls-2" d="M642.62,381.33c4.81-3.35,11.55-1.93,16.58,1.08s9.13,7.39,14.22,10.31"/>
    <path class="cls-1" d="M645.65,386.52c8.25-4.91,18.37,7.52,24.74,11.39s12.65-6.35,6.06-10.36c-6.08-3.7-10.97-9.13-17.57-11.97s-13.25-3.01-19.28.58c-6.63,3.95-.6,14.33,6.06,10.36h0Z"/>
  </g>
  <g>
    <path class="cls-2" d="M673.82,394.13l10.12,7.41"/>
    <path class="cls-1" d="M670.79,399.32c3.37,2.47,6.75,4.94,10.12,7.41,2.62,1.91,6.69.44,8.21-2.15,1.78-3.04.47-6.29-2.15-8.21-3.37-2.47-6.75-4.94-10.12-7.41-2.62-1.91-6.69-.44-8.21,2.15-1.78,3.04-.47,6.29,2.15,8.21h0Z"/>
  </g>
  <g>
    <path class="cls-2" d="M273.7,306.39c1.64.16,3.13,1.32,3.7,2.86s.17,3.4-.98,4.57"/>
    <path class="cls-1" d="M272.1,312.18c.27.03.54.08.8.16-.79-.37-.89-.4-.32-.09-.65-.54-.74-.59-.28-.14-.46-.64-.57-.76-.35-.38.21.39.14.24-.22-.45-.08-.86-.11-.95-.1-.26-.04-.48.08-.92.36-1.31-.34.57-.28.53.17-.12-2.06,2.36-2.5,6.19,0,8.49,2.26,2.07,6.28,2.53,8.49,0,2.68-3.08,3.86-7.24,2.22-11.13-1.32-3.13-4.11-5.82-7.59-6.34-1.66-.25-3.12-.28-4.62.6-1.24.73-2.43,2.16-2.76,3.59-.65,2.85.87,6.89,4.19,7.38h0Z"/>
  </g>
  <g>
    <path class="cls-2" d="M261.85,310.95c-3.61,1.71-7.28,3.44-11.23,4-1.9.27-3.83.26-5.75.24-3.2-.05-6.39-.16-9.58-.33"/>
    <path class="cls-1" d="M258.82,305.77c-3.59,1.69-7.05,3.17-11.07,3.4s-8.35-.11-12.46-.32c-7.72-.39-7.7,11.61,0,12,5.33.27,10.83.73,16.13,0,4.78-.67,9.13-2.67,13.46-4.71,6.98-3.29.9-13.63-6.06-10.36h0Z"/>
  </g>
  <path class="cls-1" d="M116.68,85.77c-11.04,3.88-16.57,17.64-10.23,27.91,7.44,12.04,22.17,7.8,33.71,9.08,13.15,1.46,14.23,17.2,5.34,24.8-12.5,10.67-30.47,4.91-43.8-.66-3.01-1.26-6.57,1.36-7.38,4.19-.99,3.44,1.22,6.14,4.19,7.38,14.89,6.22,31.61,10.28,46.95,3.15,12.26-5.69,20.13-18.17,17.4-31.78s-15.05-19.39-28.28-19.22c-4.97.06-13.47,1.65-17.31-2.5-2.86-3.09-1.42-9.36,2.6-10.77,7.24-2.54,4.12-14.14-3.19-11.57h0Z"/>
  <path class="cls-1" d="M203.62,114.9c-13.46-1.2-31.05,2.5-33.54,18.44-2.12,13.57,10.03,26.39,22.4,29.74,12.86,3.48,27.42-2.73,33.36-14.79,3.03-6.16,3.38-13.21-1.06-18.74-3.61-4.49-9.29-6.4-13.18-10.52-5.32-5.62-13.79,2.87-8.49,8.49,3.75,3.97,14.68,7.44,12.63,13.92-2.35,7.44-11.29,11.79-18.68,10.41-6.87-1.29-15.08-7.76-15.25-15.35-.23-10.49,14.91-10.21,21.81-9.59,7.69.68,7.64-11.32,0-12h0Z"/>
  <path class="cls-1" d="M251.04,152.03c5.68-17.3,8.48-35.39,8.39-53.6-.03-6.5-10.79-8.49-11.79-1.6-1.8,12.51-2.79,25.05-2.75,37.69.01,4.84,6.8,8.38,10.24,4.24,2.8-3.36,5.6-6.73,8.4-10.09,1.47-1.77,3.74-3.73,4.8-5.77,1.41-1,1.5-1.4.28-1.18-1.26-.9-1.79-1.05-1.58-.46-.19.22,2.5,5.43,2.79,5.97,1.37,2.62,3.08,4.54,5.44,6.29,2.54,1.89,6.81.47,8.21-2.15,1.76-3.29,3.64-7.62,6.99-9.62,2.52-1.5,5.11-1.51,5.91,1.49,1.08,4.06.52,9.2.58,13.38.07,5,0,9.99-.15,14.98-.24,7.72,11.76,7.72,12,0,.26-8.11.25-16.23-.13-24.34-.3-6.25-1.08-12.65-6.88-16.26-12.4-7.72-23.34,4.3-28.69,14.31l8.21-2.15c-1.87-1.39-2.53-5.48-3.68-7.48-1.81-3.16-4.51-5.57-8.26-5.89-4.7-.4-7.93,2.72-10.73,6.05-4.02,4.79-8,9.61-12,14.42l10.24,4.24c-.03-11.54.67-23.07,2.32-34.5l-11.79-1.6c.09,17.22-2.59,34.05-7.96,50.41-2.41,7.35,9.17,10.51,11.57,3.19h0Z"/>
  <path class="cls-1" d="M333.3,148.13l-.04-43.21h-12c.13,8.32.27,16.64.4,24.96.11,6.84,9.75,8.04,11.79,1.6.64-2.04,2.12-8.51,5.2-8.38,1.78.08,2.26,3.14,2.77,4.57,1.94,5.53,4.09,10.14,10.03,12.12,2.61.87,5.36-.61,6.78-2.76,2.74-4.16,5.48-8.31,8.22-12.47.46-.71,1.99-2.3,2.05-3.12.16-1.94.09.71-.84-.37,1.53,1.77,3.73,3.27,5.37,4.98,6.55,6.81,11.66,14.68,15.63,23.23,3.25,7,13.6.91,10.36-6.06-5.34-11.5-13.51-24.3-24.09-31.68-5.1-3.56-11.08-3.18-15.17,1.63-4.54,5.34-8.04,11.96-11.89,17.8l6.78-2.76c-.85-.29-2.23-5.56-2.94-7.29-1.63-4-4.12-7.6-8.37-9.09-11.55-4.04-18.51,7.16-21.45,16.44l11.79,1.6c-.13-8.32-.27-16.64-.4-24.96-.12-7.71-12.01-7.74-12,0l.04,43.21c0,7.72,12.01,7.73,12,0h0Z"/>
  <path class="cls-1" d="M419.74,131.21c10.03.88,20.02.67,30-.66,6.54-.87,14.46-2.84,15.97-10.39,3.23-16.22-21.77-15.4-31.3-13.03-13.45,3.35-23.36,15.89-17.09,29.76,7.52,16.64,26.89,17.31,42.31,13.55,7.5-1.83,4.32-13.41-3.19-11.57-8.65,2.11-20.55,3.79-26.73-4.38-5.28-6.98-.63-13.32,6.66-15.44,3.48-1.01,7.06-1.34,10.67-1.31,1.77.01,3.62,0,5.33.55.87.28,2.38,1.61,1.9-.05s-.06-.44-1.33-.41c-5.01.13-10.25,1.61-15.36,1.84-5.96.26-11.9.07-17.84-.45-7.69-.67-7.65,11.33,0,12h0Z"/>
  <path class="cls-1" d="M498.34,141.21c-1.63-9.31-3.54-19.44-.65-28.7,2.05-6.58,7.35-13.39,14.68-14.07s7.7-12.72,0-12c-11.33,1.05-20.19,8.47-24.69,18.78-5.43,12.45-3.17,26.27-.91,39.18,1.33,7.59,12.9,4.37,11.57-3.19h0Z"/>
  <path class="cls-1" d="M527.52,97.75c-1.24,14.52-2.47,29.05-3.71,43.57-.55,6.48,8.09,7.4,11.18,3.03,10.63-15.07,21.26-30.15,31.89-45.22l-10.36-6.06c-2.77,4.64-5.54,9.29-8.31,13.93-2.6,4.37-6.82,9.45-7.86,14.47s1.69,7.29,5.02,10.12,5.52,6.8,5.81,11.3c.5,7.67,12.5,7.72,12,0-.26-4.09-1.13-7.94-2.97-11.62-1.3-2.6-5.05-8.97-8.2-9.58-.81-.8-.88-.54-.19.79.14,1.51.43,1.65.88.42.74-.45,1.5-2.52,1.96-3.28,1.3-2.19,2.61-4.37,3.91-6.56,2.77-4.64,5.54-9.29,8.31-13.93,4.02-6.74-5.98-12.27-10.36-6.06-10.63,15.07-21.26,30.15-31.89,45.22l11.18,3.03c1.24-14.52,2.47-29.05,3.71-43.57.65-7.69-11.35-7.65-12,0h0Z"/>
  <path class="cls-1" d="M574.34,101.05c-.97,14.56-.26,29.01,1.82,43.44,1.1,7.61,12.66,4.38,11.57-3.19-1.92-13.33-2.28-26.82-1.39-40.25.51-7.71-11.49-7.68-12,0h0Z"/>
  <path class="cls-1" d="M611.18,117.13c-.26-1.56,2.05-2.55,3.23-2.62,2.04-.13,4.13,1.45,5.43,2.85,3.38,3.61,4.39,8.97,5.53,13.6l8.81-6.78c-16.03-8.49-33.9,11-21.21,25.45,5.6,6.37,15.06,7.94,21.98,2.81s8.74-14.07,5.38-21.8c-2.87-6.61-12.14-1.6-10.97,4.62.8,4.25,1.6,8.5,2.41,12.74,1.43,7.58,13,4.37,11.57-3.19-.8-4.25-1.6-8.5-2.41-12.74l-10.97,4.62c2.23,5.12-5.01,9.26-8.41,4.55-3.11-4.32,2.33-8.94,6.56-6.7,4.64,2.46,10.09-1.59,8.81-6.78-2.58-10.47-7.11-22.2-18.88-24.87-10.84-2.46-20.27,6.69-18.46,17.42,1.28,7.6,12.84,4.38,11.57-3.19h0Z"/>
  <path class="cls-1" d="M665.03,142.99c-.62-9-1.71-19.36,2.78-27.61,3.32-6.1,10.17-10.31,16.98-7.7,7.22,2.76,10.34-8.84,3.19-11.57-10.45-3.99-21.74,1.36-28.21,9.8-8.06,10.52-7.6,24.54-6.74,37.09.53,7.66,12.53,7.72,12,0h0Z"/>
  <path class="cls-1" d="M713.67,78.39c-1.61-9.67,11.22-11.63,17.6-8.64,5.76,2.7,10.9,11,4.94,16.02s-13.69,6.62-18.09,13.9c-4.59,7.6-4.17,16.98-3.28,25.47.79,7.6,12.8,7.69,12,0-.59-5.68-1.48-12.19.72-17.64,2.08-5.16,7.57-7,12-9.61,10-5.88,14.23-16.27,8.97-27.04-4.95-10.14-16.43-15.76-27.47-14.34-12.54,1.61-21.04,12.58-18.96,25.07,1.26,7.6,12.83,4.38,11.57-3.19h0Z"/>
  <path class="cls-1" d="M725.64,152.19l3.75-3.17h-8.49c1.92,1.85,2.22,3.69,1.43,6.11-1,3.08,1.17,6.55,4.19,7.38,3.25.89,6.37-1.1,7.38-4.19,2.03-6.23.18-13.25-4.52-17.78-2.48-2.39-5.97-2.13-8.49,0l-3.75,3.17c-2.48,2.09-2.16,6.33,0,8.49,2.45,2.45,6,2.1,8.49,0h0Z"/>
  <path class="cls-1" d="M719.73,161.1c7.72,0,7.73-12,0-12s-7.73,12,0,12h0Z"/>
  <g>
    <path class="cls-2" d="M420.92,414.95l8.47-.6"/>
    <path class="cls-1" d="M420.92,420.95l8.47-.6c3.12-.22,6.15-2.6,6-6-.14-3.06-2.65-6.24-6-6l-8.47.6c-3.12.22-6.15,2.6-6,6,.14,3.06,2.65,6.24,6,6h0Z"/>
  </g>
  <g>
    <path class="cls-2" d="M349.83,415.39h-.47"/>
    <path class="cls-1" d="M349.83,409.39h-.47c-.83-.03-1.6.14-2.31.52-.74.24-1.39.66-1.93,1.24-.59.54-1,1.19-1.24,1.93-.38.72-.55,1.49-.52,2.31l.21,1.6c.29,1.02.8,1.9,1.54,2.65l1.21.94c.94.54,1.95.82,3.03.82h.47c.83.03,1.6-.14,2.31-.52.74-.24,1.39-.66,1.93-1.24.59-.54,1-1.19,1.24-1.93.38-.72.55-1.49.52-2.31l-.21-1.6c-.29-1.02-.8-1.9-1.54-2.65l-1.21-.94c-.94-.54-1.95-.82-3.03-.82h0Z"/>
  </g>
  <g>
    <path class="cls-2" d="M381.37,316.53h.47"/>
    <path class="cls-1" d="M381.37,322.53h.47c.83.03,1.6-.14,2.31-.52.74-.24,1.39-.66,1.93-1.24.59-.54,1-1.19,1.24-1.93.38-.72.55-1.49.52-2.31l-.21-1.6c-.29-1.02-.8-1.9-1.54-2.65l-1.21-.94c-.94-.54-1.95-.82-3.03-.82h-.47c-.83-.03-1.6.14-2.31.52-.74.24-1.39.66-1.93,1.24-.59.54-1,1.19-1.24,1.93-.38.72-.55,1.49-.52,2.31l.21,1.6c.29,1.02.8,1.9,1.54,2.65l1.21.94c.94.54,1.95.82,3.03.82h0Z"/>
  </g>
  <g>
    <path class="cls-2" d="M188.33,273.64c-1.41.76-2.73,1.94-3.05,3.51-.09.44-.1.9-.23,1.33-.18.59-.59,1.09-.88,1.64-1.4,2.63.11,6,2.4,7.91s5.23,2.82,7.87,4.22c1.57.83,3.07,1.84,4.78,2.34,3.06.89,6.33,0,9.37-.95"/>
    <path class="cls-1" d="M187.07,271.48c-1.8,1.02-3.37,2.48-4.04,4.48-.31.93-.34,1.71-.83,2.57-.45.79-.79,1.61-.94,2.51-.65,3.88,1.64,7.45,4.7,9.64,1.55,1.11,3.3,1.87,5.02,2.66s3.37,1.79,5.09,2.64c4.35,2.16,8.72,1.46,13.19.06,3.06-.96,1.75-5.79-1.33-4.82s-6.32,1.94-9.34.44c-1.41-.7-2.74-1.54-4.16-2.21s-2.86-1.27-4.23-2.02c-1.88-1.03-4.39-2.93-4.05-5.4.16-1.14,1.17-2.13,1.42-3.32.13-.6.11-1.19.48-1.71s.99-.88,1.55-1.2c2.8-1.58.29-5.9-2.52-4.32h0Z"/>
  </g>
  <g>
    <path class="cls-2" d="M184.99,274.45l8.87-5.27"/>
    <path class="cls-1" d="M186.25,276.61l8.87-5.27c1.12-.67,1.63-2.28.9-3.42s-2.22-1.61-3.42-.9l-8.87,5.27c-1.12.67-1.63,2.28-.9,3.42s2.22,1.61,3.42.9h0Z"/>
  </g>
  <g>
    <path class="cls-2" d="M212.06,291.91c1.49-2.49,2.3-5.38,2.33-8.29.01-1.27-.13-2.56-.64-3.72-.4-.92-1.01-1.73-1.61-2.53-1.88-2.48-3.8-4.99-6.29-6.86s-5.65-3.06-8.72-2.55c-1.85.31-3.55,1.21-5.21,2.09"/>
    <path class="cls-1" d="M214.22,293.17c1.94-3.34,3.02-7.37,2.58-11.24s-3.27-7.11-5.8-9.99-5.41-5.13-8.99-6.12c-4.1-1.14-7.72.15-11.34,2.07-2.84,1.51-.32,5.83,2.52,4.32,2.57-1.37,4.95-2.37,7.86-1.46,2.6.81,4.65,2.73,6.41,4.73.89,1.01,1.72,2.08,2.53,3.15.87,1.15,1.67,2.25,1.86,3.72.36,2.86-.52,5.85-1.94,8.29-1.62,2.79,2.7,5.31,4.32,2.52h0Z"/>
  </g>
  <g>
    <path class="cls-2" d="M227.59,249.76l-3.78.57c-.82.12-1.7.28-2.28.87-.38.39-.58.93-.76,1.45-.7,1.97-1.39,3.93-2.09,5.9-.57,1.62-1.15,3.29-1.02,5,.11,1.44.73,2.79,1.39,4.07,1.29,2.5,2.84,4.91,4.88,6.85s4.64,3.39,7.43,3.71"/>
    <path class="cls-1" d="M226.93,247.35c-1.88.28-4.04.32-5.78,1.14-2.01.95-2.58,2.91-3.27,4.86-1.35,3.82-3.5,8.01-2.4,12.14.95,3.56,3.34,7.17,5.8,9.85s5.78,4.76,9.42,5.26c1.34.18,2.68-.32,3.08-1.75.32-1.17-.4-2.89-1.75-3.08-5.55-.76-9.57-5.82-11.47-10.8-1.11-2.9.61-5.99,1.57-8.71.29-.83.59-1.66.88-2.5.1-.3.16-.67.39-.82.49-.3,1.44-.27,2-.35l2.84-.43c1.34-.2,2.07-1.89,1.75-3.08-.39-1.43-1.73-1.95-3.08-1.75h0Z"/>
  </g>
  <g>
    <path class="cls-2" d="M219.87,260.01l.3-.94"/>
    <path class="cls-1" d="M222.28,260.68l.3-.94c.1-.33.12-.66.04-1-.02-.33-.11-.64-.3-.93-.16-.29-.37-.53-.64-.7-.24-.22-.52-.37-.85-.45l-.66-.09c-.45,0-.87.12-1.26.34l-.51.39c-.31.31-.52.68-.64,1.1l-.3.94c-.1.33-.12.66-.04,1,.02.33.11.64.3.93.16.29.37.53.64.7.24.22.52.37.85.45l.66.09c.45,0,.87-.12,1.26-.34l.51-.39c.31-.31.52-.68.64-1.1h0Z"/>
  </g>
  <g>
    <path class="cls-2" d="M244.06,270.55c.58-.9.83-2.01.69-3.07"/>
    <path class="cls-1" d="M246.21,271.81c.26-.4.43-.84.61-1.28.11-.26.19-.52.25-.79.17-.73.26-1.51.17-2.26.01-.34-.06-.67-.22-.96-.1-.31-.27-.58-.52-.8-.23-.24-.49-.42-.8-.52-.3-.16-.62-.23-.96-.22-.65.03-1.32.24-1.77.73l-.39.51c-.23.39-.34.81-.34,1.26.05.4.04.79,0,1.19l.09-.66c-.06.41-.17.81-.33,1.2l.25-.6c-.1.24-.22.47-.36.69-.18.29-.28.6-.3.93-.07.33-.06.66.04,1,.08.33.23.61.45.85.18.27.41.49.7.64.58.31,1.28.46,1.93.25s1.13-.58,1.49-1.15h0Z"/>
  </g>
  <g>
    <path class="cls-2" d="M196.58,291.94c.84-.3,1.88.21,2.16,1.06"/>
    <path class="cls-1" d="M197.24,294.35c.1-.03.2-.06.3-.07l-.66.09c.14-.02.28-.02.42,0l-.66-.09c.16.02.31.06.46.13l-.6-.25c.15.06.29.14.42.24l-.51-.39c.12.09.23.2.32.32l-.39-.51c.08.11.15.22.2.34l-.25-.6s.03.07.04.11c.08.33.23.61.45.85.18.27.41.49.7.64.29.18.6.28.93.3.33.07.66.06,1-.04l.6-.25c.38-.22.67-.52.9-.9l.25-.6c.12-.44.12-.89,0-1.33-.23-.67-.5-1.14-.97-1.66-.21-.23-.51-.44-.75-.61-.1-.07-.2-.13-.3-.19-.24-.12-.48-.21-.73-.31-.05-.02-.11-.04-.16-.06-.32-.09-.68-.12-1-.15-.11-.01-.23,0-.34,0-.3.03-.68.06-1,.17-.33.08-.61.23-.85.45-.27.18-.49.41-.64.7-.18.29-.28.6-.3.93-.07.33-.06.66.04,1l.25.6c.22.38.52.67.9.9l.6.25c.44.12.89.12,1.33,0h0Z"/>
  </g>
  <g>
    <path class="cls-2" d="M200.31,280.5c-.37-.55-1.38-.12-1.4.55s.64,1.19,1.29,1.28,1.31-.14,1.95-.32c.46-.13.99-.32,1.12-.78.15-.57-.43-1.04-.96-1.3-1.25-.6-2.63-.95-4.02-1.01-.34-.01-.72,0-.99.21-.46.36-.39,1.07-.21,1.63.22.7.53,1.38.93,2,.18.28.38.56.66.72.29.17.63.2.96.19,1.46-.03,2.95-1,3.25-2.43s-.99-3.06-2.43-2.83"/>
    <path class="cls-1" d="M201.38,279.44c-1.08-1.07-2.87-.8-3.64.51-.84,1.42.15,3.13,1.57,3.66s3.61.09,4.72-.9c1.43-1.27.63-3.16-.79-4-2.26-1.34-8.4-2.61-7.71,1.85.24,1.52,1.15,3.55,2.58,4.28,1.34.69,3.17.23,4.35-.58,1.45-.99,2.33-2.76,1.83-4.51s-2.03-2.98-3.82-2.85c-1.91.14-1.93,3.14,0,3,1-.07,1.19,1.06.56,1.68-.29.29-.82.58-1.25.56-.61-.03-.74-.57-1-1.15-.11-.26-.17-.72-.32-.93l-.17.35.42.03c.66.21,1.38.22,2.05.45.25.09.74.43.96.41.23.2.31.07.24-.38.22-.46.16-.58-.2-.38-.37-.03-2.75.76-2.51,1.01,1.37,1.36,3.49-.76,2.12-2.12h0Z"/>
  </g>
  <g>
    <path class="cls-2" d="M231.13,261.59c-.74.53-.87,1.67-.4,2.44s1.41,1.19,2.32,1.19,1.78-.36,2.55-.85c.17-.1.34-.22.43-.39.25-.46-.14-1.01-.51-1.38-.45-.46-.9-.92-1.48-1.2s-1.29-.35-1.83,0-.77,1.16-.36,1.65c.15.18.36.3.58.38,1.2.43,2.68-.43,2.91-1.68"/>
    <path class="cls-1" d="M230.07,260.53c-1.13.98-1.42,2.69-.76,4.02s2.01,2.05,3.43,2.16,3.25-.5,4.25-1.55c1.3-1.36.25-3.03-.87-4.07s-2.52-1.76-4.03-1.28-2.43,2.3-1.68,3.76c1.48,2.9,5.71,1.13,6.37-1.43.48-1.87-2.41-2.67-2.89-.8-.07.27-.15.43-.4.57-.44.24-.47-.11-.44.37s.28.4.62.64c.2.14.8.95.97.95l.21-.79-.29.17c-.19.06-.38.2-.57.28-.35.13-.76.24-1.13.18-.56-.08-1.22-.58-.65-1.06,1.46-1.26-.67-3.38-2.12-2.12h0Z"/>
  </g>
  <g>
    <path class="cls-2" d="M244.01,340.69c4.09,4.19,8.44,8.99,8.54,14.85.04,2.43-.69,4.81-1.4,7.13-.31.99-.63,2.01-1.29,2.82-.5.61-1.17,1.06-1.83,1.49-3.17,2.06-6.48,3.93-9.88,5.59"/>
    <path class="cls-1" d="M242.95,341.76c4.6,4.77,9.14,9.86,7.73,17s-7.43,9.59-13.29,12.53c-1.73.87-.21,3.45,1.51,2.59,3.61-1.81,8.21-3.68,11.16-6.5,2.5-2.39,3.41-6.27,3.83-9.61.93-7.43-4-13.12-8.82-18.12-1.34-1.39-3.46.73-2.12,2.12h0Z"/>
  </g>
  <g>
    <path class="cls-2" d="M180.81,366.03c-.96-2.92,1-5.9,2.71-8.46,3.79-5.68,6.77-11.85,9.73-18"/>
    <path class="cls-1" d="M182.25,365.63c-.77-4.48,4.34-9.93,6.41-13.67s3.99-7.72,5.88-11.63c.84-1.73-1.75-3.25-2.59-1.51-2.7,5.59-5.4,11.18-8.72,16.44-2.32,3.68-4.65,6.68-3.88,11.17.33,1.9,3.22,1.09,2.89-.8h0Z"/>
  </g>
  <g>
    <path class="cls-2" d="M142.89,403.27c.61,1.62,1.88,2.88,3.11,4.1.78.77,1.57,1.55,2.53,2.06,2.28,1.23,5.05.8,7.59,1.28,1.99.38,3.84,1.31,5.81,1.76,1.54.35,3.14.4,4.72.44,5.77.16,11.54.32,17.31.48"/>
    <path class="cls-1" d="M141.6,404.02c1.29,2.6,3.59,5.29,6.18,6.7,3.03,1.65,6.9,1.09,10.14,2.05,8.4,2.49,17.34,1.88,26.06,2.12,1.93.05,1.93-2.95,0-3-7.1-.2-15.47.71-22.37-1.07-2.4-.62-4.57-1.44-7.03-1.81-3.17-.48-4.76-.22-7.52-2.71-1.2-1.08-2.16-2.35-2.87-3.79-.86-1.73-3.45-.21-2.59,1.51h0Z"/>
  </g>
  <g>
    <path class="cls-2" d="M151.72,352.3l3.86-5.56c-1.31.99-2.47,2.17-3.47,3.47-.13.7-.24,1.39-.38,2.09Z"/>
    <path class="cls-1" d="M153.01,353.06l3.86-5.56c.82-1.19-.86-2.97-2.05-2.05-1.06.82-2.05,1.68-2.93,2.68-.4.45-.91.95-1.15,1.5-.29.65-.32,1.57-.46,2.27-.36,1.89,2.53,2.69,2.89.8.1-.53.12-1.17.31-1.67.08-.23.4-.64.66-.92.67-.75,1.41-1.45,2.2-2.07l-2.05-2.05-3.86,5.56c-1.1,1.59,1.5,3.09,2.59,1.51Z"/>
  </g>
  <g>
    <path class="cls-2" d="M181.05,232.61c-.29.07-.58.15-.87.23-2.65,1.49-5.11,3.34-7.24,5.51l9.63-5.21c-.54-.1-1.05-.27-1.52-.53Z"/>
    <path class="cls-1" d="M180.65,231.16c-3.29.84-6.42,3.78-8.77,6.12-1.22,1.22.33,3.16,1.82,2.36,3.21-1.74,6.42-3.48,9.63-5.21,1.12-.6.89-2.45-.36-2.74-.41-.07-.79-.19-1.16-.37-1.74-.81-3.26,1.77-1.51,2.59.62.29,1.21.52,1.88.68l-.36-2.74c-3.21,1.74-6.42,3.48-9.63,5.21l1.82,2.36c1.98-1.97,4.67-4.64,7.45-5.35,1.87-.48,1.08-3.37-.8-2.89Z"/>
  </g>
  <g>
    <path class="cls-2" d="M199.78,228.33c1.46.18,2.93.26,4.4.21l-2.85-.39c-.52.06-1.03.12-1.55.18Z"/>
    <path class="cls-1" d="M199.78,229.83c1.46.17,2.93.25,4.4.21.74-.02,1.38-.56,1.47-1.3.08-.66-.33-1.54-1.07-1.65l-1.93-.26c-.29-.04-.58-.08-.87-.12-.67-.09-1.33.04-2,.12-.8.09-1.5.62-1.5,1.5,0,.74.69,1.59,1.5,1.5.41-.05.83-.1,1.24-.14-.14.01-.06-.07.02-.07.31,0,.66.09.97.13l1.76.24.4-2.95c-1.47.04-2.94-.04-4.4-.21-.81-.09-1.5.76-1.5,1.5,0,.89.69,1.41,1.5,1.5Z"/>
  </g>
  <g>
    <path class="cls-2" d="M159.8,265.99l2.75-6.7c-1.14,1.29-2.11,2.73-2.93,4.25.05.82.12,1.63.18,2.45Z"/>
    <path class="cls-1" d="M161.25,266.39c.92-2.23,1.83-4.47,2.75-6.7.57-1.39-1.56-2.55-2.51-1.46s-1.83,2.28-2.58,3.53c-.33.56-.72,1.12-.79,1.78-.07.78.12,1.66.18,2.45.15,1.91,3.15,1.93,3,0-.09-1.2-.31-1.89.32-2.91.59-.96,1.25-1.87,1.99-2.72l-2.51-1.46c-.92,2.23-1.83,4.47-2.75,6.7-.73,1.78,2.17,2.56,2.89.8Z"/>
  </g>
  <g>
    <path class="cls-2" d="M206.18,237.27c4.14,2,8.74,3.04,13.34,3"/>
    <path class="cls-1" d="M205.43,238.56c4.47,2.08,9.17,3.17,14.1,3.21,1.93.02,1.93-2.98,0-3-4.39-.04-8.6-.95-12.59-2.8-1.74-.81-3.27,1.78-1.51,2.59h0Z"/>
  </g>
  <g>
    <path class="cls-2" d="M264.03,260.44c.6-1.2,2.06-1.91,3.38-1.62s2.36,1.53,2.4,2.87c.12,3.35-4.93,5.14-4.82,8.49-1.48.33-2.97.65-4.45.98"/>
    <path class="cls-1" d="M265.32,261.2c1.01-1.54,3.14-.41,2.92,1.1-.05.34-.33.73-.52,1.01-.58.88-1.45,1.59-2.15,2.38-1.18,1.33-2,2.68-2.08,4.49l1.1-1.45c-1.48.33-2.97.65-4.45.98-1.88.41-1.09,3.31.8,2.89,1.48-.33,2.97-.65,4.45-.98.66-.15,1.07-.81,1.1-1.45.09-1.92,2.16-3.23,3.27-4.62s1.79-2.87,1.44-4.59c-.89-4.35-6.23-4.68-8.47-1.28-1.06,1.62,1.53,3.12,2.59,1.51h0Z"/>
  </g>
  <g>
    <path class="cls-2" d="M316.85,271.12c-.47.12-.93.22-1.38.29l26.2,9.61c-2.71-1.57-5.1-3.69-7.52-5.7-1.28-.24-2.46-.7-3.58-1.39-1.49.23-3.09-.2-4.22-1.2-2.65.49-5.42.32-7.9-.69-.58-.24-1.11-.54-1.59-.91Z"/>
    <path class="cls-1" d="M316.45,269.67l-1.38.29c-1.57.33-1.27,2.43,0,2.89,8.73,3.2,17.47,6.4,26.2,9.61,1.64.6,2.55-1.87,1.16-2.74-4.03-2.5-6.83-5.54-11.28-7.17-1.45-.53-3.26-1.2-4.8-1.33-3.09-.26-5.86.51-8.73-1.39-1.61-1.07-3.12,1.53-1.51,2.59,3.67,2.44,8.43,2.04,12.56,2.97,4.99,1.12,8.01,4.29,12.25,6.93l1.16-2.74c-8.73-3.2-17.47-6.4-26.2-9.61v2.89l1.38-.29c1.89-.39,1.09-3.28-.8-2.89Z"/>
  </g>
  <g>
    <path class="cls-2" d="M357.88,290.59s-.03-.04-.04-.05c-.82-.07-1.64-.07-2.46.04.66,1.31,2.43,1.08,3.97,1.13-.5-.34-1-.7-1.46-1.12Z"/>
    <path class="cls-1" d="M358.94,289.53c-.73-.84-2.58-.57-3.57-.45-1.1.13-1.91,1.18-1.3,2.26,1.11,1.94,3.31,1.83,5.26,1.88,1.57.04,1.92-2,.76-2.8-.41-.28-.79-.56-1.15-.89-1.44-1.27-3.57.84-2.12,2.12.56.49,1.15.94,1.76,1.36l.76-2.8c-.69-.02-2.31.24-2.67-.39l-1.3,2.26c.82-.1,1.64-.1,2.46-.04l-1.06-.44.04.05c1.27,1.46,3.38-.67,2.12-2.12Z"/>
  </g>
  <g>
    <path class="cls-2" d="M333.28,390.16l-3.31,6.04c1.17-2.07,2.35-4.13,3.52-6.2-.07.05-.14.11-.21.16Z"/>
    <path class="cls-1" d="M331.99,389.41c-1.1,2.01-2.21,4.03-3.31,6.04-.93,1.69,1.63,3.2,2.59,1.51,1.17-2.07,2.35-4.13,3.52-6.2.68-1.2-.79-3.01-2.05-2.05l-.21.16c-1.52,1.15-.03,3.76,1.51,2.59l.21-.16-2.05-2.05c-1.17,2.07-2.35,4.13-3.52,6.2l2.59,1.51c1.1-2.01,2.21-4.03,3.31-6.04.93-1.69-1.66-3.21-2.59-1.51Z"/>
  </g>
  <g>
    <path class="cls-2" d="M340.53,381.16c.34-.18.67-.37.98-.59,1.81-1.3,2.53-3.41,2.75-5.68-1.12,2.16-2.37,4.25-3.74,6.27Z"/>
    <path class="cls-1" d="M341.29,382.45c2.94-1.61,4.12-4.35,4.48-7.57.17-1.5-2.14-2.02-2.8-.76-1.13,2.16-2.37,4.25-3.74,6.27-1.08,1.61,1.52,3.11,2.59,1.51,1.36-2.02,2.61-4.11,3.74-6.27l-2.8-.76c-.24,2.17-1.04,3.91-2.99,4.98-1.69.93-.18,3.52,1.51,2.59Z"/>
  </g>
  <g>
    <path class="cls-2" d="M380.62,381.08c1.51-4.6,4.21-7.82,7.67-10.67.46-2.41.59-4.94.68-7.35l-14.94,26.84c1.69-3,3.45-6.08,6.13-8.24.13-.1.26-.19.39-.29.02-.09.04-.18.07-.27Z"/>
    <path class="cls-1" d="M382.07,381.48c.97-2.64,2.21-4.89,4.09-7,.9-1.01,2.53-1.91,3.19-3.01,1.33-2.23,1.01-5.92,1.11-8.42.06-1.49-2.08-2.03-2.8-.76-4.98,8.95-9.96,17.89-14.94,26.84-.94,1.69,1.63,3.2,2.59,1.51,1.4-2.47,2.82-4.9,4.8-6.96.73-.76,1.67-1.14,1.94-2.21.49-1.87-2.4-2.67-2.89-.8.17-.65-.17-.07-.62.39-.87.89-1.69,1.71-2.46,2.72-1.29,1.67-2.32,3.51-3.36,5.34l2.59,1.51c4.98-8.95,9.96-17.89,14.94-26.84l-2.8-.76c-.09,2.3-.06,5.23-1.36,7.26-.75,1.17-2.23,2.18-3.12,3.3-1.72,2.17-2.86,4.49-3.81,7.07-.67,1.81,2.23,2.6,2.89.8Z"/>
  </g>
  <g>
    <path class="cls-2" d="M395.6,335.42l1.2,3.1c.43-1.04.1-2.01-.5-2.98-.23-.02-.47-.06-.7-.12Z"/>
    <path class="cls-1" d="M394.15,335.81c.4,1.03.8,2.06,1.2,3.1.54,1.4,2.37,1.44,2.89,0,.33-.9.31-1.9,0-2.81-.16-.45-.37-.93-.64-1.33-.42-.62-.93-.65-1.6-.81-.79-.18-1.62.24-1.85,1.05-.21.76.25,1.66,1.05,1.85.36.08.73.13,1.1.17l-1.3-.74c.38.63.6,1.12.34,1.82h2.89c-.4-1.03-.8-2.06-1.2-3.1-.29-.76-1.01-1.28-1.85-1.05-.72.2-1.34,1.09-1.05,1.85Z"/>
  </g>
  <g>
    <path class="cls-2" d="M347.03,419.67h-1.78"/>
    <path class="cls-1" d="M347.03,418.17h-1.78c-.78,0-1.54.69-1.5,1.5s.66,1.5,1.5,1.5h1.78c.78,0,1.54-.69,1.5-1.5s-.66-1.5-1.5-1.5h0Z"/>
  </g>
  <g>
    <path class="cls-2" d="M509.53,435.75c1.87-.19,3.76-.11,5.61.19,1.7.28,3.37.72,5.07,1.04,5.64,1.07,11.44.71,17.17.35l-39.08-3.85c3.74.76,7.48,1.55,11.23,2.27Z"/>
    <path class="cls-1" d="M509.53,437.25c4.65-.25,8.94,1.13,13.51,1.64s9.56.23,14.34-.06c1.95-.12,1.91-2.81,0-3-13.03-1.28-26.06-2.56-39.08-3.85-1.68-.16-2.05,2.61-.4,2.95,3.74.76,7.48,1.54,11.23,2.27,1.89.37,2.69-2.52.8-2.89-3.75-.74-7.49-1.51-11.23-2.27l-.4,2.95c13.03,1.28,26.06,2.56,39.08,3.85v-3c-5.03.31-10.07.62-15.08-.06-4.36-.6-8.32-1.76-12.77-1.51-1.92.11-1.93,3.11,0,3Z"/>
  </g>
  <g>
    <path class="cls-2" d="M556.84,435.84c.17.13.33.27.48.42l3.25-1.51c-1.27.27-2.51.64-3.72,1.09Z"/>
    <path class="cls-1" d="M555.78,436.9c.17.13.32.27.48.42.52.5,1.2.52,1.82.23,1.08-.5,2.16-1,3.25-1.51.67-.31.89-1.25.61-1.87-.31-.7-1.02-1.03-1.77-.87-1.27.28-2.51.64-3.72,1.09-.76.28-1.28,1.02-1.05,1.85.2.73,1.08,1.33,1.85,1.05,1.22-.45,2.46-.82,3.72-1.09l-1.16-2.74c-1.08.5-2.16,1-3.25,1.51l1.82.23c-.15-.15-.31-.28-.48-.42-.64-.5-1.5-.62-2.12,0-.52.52-.64,1.62,0,2.12Z"/>
  </g>
  <g>
    <path class="cls-2" d="M542.79,376.93c3.77-.59,7.79-1.14,11.25.46,1,.46,1.92,1.1,2.95,1.51,1.01.41,2.09.59,3.13.9,1.54.45,3,1.17,4.44,1.88,3.72,1.84,7.43,3.67,11.15,5.51"/>
    <path class="cls-1" d="M543.19,378.38c11.06-1.66,22.06,5.31,31.76,10.1,1.73.85,3.25-1.73,1.51-2.59-5.78-2.86-11.43-5.87-17.52-7.95-2.75-.94-5.05-2.55-7.98-2.95s-5.73.06-8.57.49c-1.9.28-1.09,3.18.8,2.89h0Z"/>
  </g>
  <g>
    <path class="cls-2" d="M574.81,316.64c4.74,6.85,6.52,15.26,8.2,23.42"/>
    <path class="cls-1" d="M573.51,317.4c4.59,6.99,6.38,14.98,8.05,23.06.39,1.89,3.28,1.09,2.89-.8-1.72-8.32-3.63-16.58-8.35-23.77-1.06-1.61-3.65-.11-2.59,1.51h0Z"/>
  </g>
  <g>
    <path class="cls-2" d="M583.78,340.68c1.39.33,2.58,1.42,3.05,2.77"/>
    <path class="cls-1" d="M583.38,342.13c.91.24,1.69.87,2,1.72.28.76,1.02,1.28,1.85,1.05.73-.2,1.33-1.08,1.05-1.85-.69-1.87-2.14-3.31-4.09-3.82s-2.67,2.4-.8,2.89h0Z"/>
  </g>
  <g>
    <path class="cls-2" d="M632.9,353.51l3.49,10.9c-.19-3.87-1.73-7.4-3.49-10.9Z"/>
    <path class="cls-1" d="M631.46,353.91c1.16,3.63,2.33,7.26,3.49,10.9.49,1.54,3.07,1.37,2.95-.4-.3-4.18-1.84-7.94-3.69-11.65-.86-1.73-3.45-.21-2.59,1.51,1.61,3.22,3.03,6.51,3.29,10.14l2.95-.4c-1.16-3.63-2.33-7.26-3.49-10.9-.59-1.83-3.48-1.05-2.89.8Z"/>
  </g>
  <g>
    <path class="cls-2" d="M629.1,345.5c-.1-.17-.19-.35-.29-.53,1.11,2.93,2.67,5.72,4.09,8.54l-.91-2.85c-.97-1.71-1.94-3.43-2.89-5.15Z"/>
    <path class="cls-1" d="M630.39,344.75l-.29-.53c-.79-1.46-3.37-.45-2.74,1.16,1.2,3.07,2.75,5.96,4.24,8.9.77,1.51,3.26.46,2.74-1.16-.29-.9-.53-1.82-.86-2.7-.74-1.96-2.07-3.83-3.09-5.67-.93-1.69-3.53-.18-2.59,1.51s2.12,3.37,2.85,5.13c.33.81.54,1.69.81,2.52l2.74-1.16c-1.37-2.7-2.84-5.36-3.94-8.18l-2.74,1.16.29.53c.92,1.7,3.51.19,2.59-1.51Z"/>
  </g>
  <g>
    <path class="cls-2" d="M619.43,320.66c-1.13-1.24-2.34-2.4-3.62-3.47l3.64,4.56c-.03-.37-.03-.73-.02-1.09Z"/>
    <path class="cls-1" d="M620.49,319.6c-1.14-1.23-2.34-2.39-3.62-3.47-1.5-1.26-3.32.62-2.12,2.12s2.43,3.04,3.64,4.56c.81,1.01,2.63.17,2.56-1.06-.02-.37-.03-.73-.02-1.09.04-1.93-2.96-1.93-3,0,0,.37,0,.73.02,1.09l2.56-1.06c-1.21-1.52-2.43-3.04-3.64-4.56l-2.12,2.12c1.29,1.08,2.49,2.24,3.62,3.47,1.31,1.42,3.43-.7,2.12-2.12Z"/>
  </g>
  <g>
    <path class="cls-2" d="M537.75,322.63c1.72-3.67,4.69-6.74,8.3-8.58,1.12-.57,2.35-1.06,3.13-2.04.82-1.02,1.02-2.39,1.34-3.67.65-2.57,1.93-4.98,3.71-6.95"/>
    <path class="cls-1" d="M539.04,323.39c1.05-2.07,2.35-3.96,4.08-5.52,1.85-1.67,4.13-2.36,6.06-3.84,1.18-.91,1.8-1.99,2.29-3.37,1.08-3.08,1.64-5.57,3.83-8.2,1.22-1.48-.89-3.61-2.12-2.12-3.33,4.01-3.82,10.13-8.41,12.71-3.65,2.05-6.41,5.11-8.31,8.83-.87,1.72,1.71,3.24,2.59,1.51h0Z"/>
  </g>
  <g>
    <path class="cls-2" d="M705.35,404.87c-3.52-4.2-9.64-4.85-15.12-5.19"/>
    <path class="cls-1" d="M706.41,403.81c-4.14-4.56-10.36-5.25-16.18-5.63-1.93-.12-1.92,2.88,0,3,5.03.32,10.46.8,14.06,4.75,1.3,1.43,3.42-.7,2.12-2.12h0Z"/>
  </g>
  <g>
    <path class="cls-2" d="M705.82,404.55l.89,2.23"/>
    <path class="cls-1" d="M704.37,404.95l.89,2.23c.29.73,1.02,1.32,1.85,1.05.7-.23,1.36-1.06,1.05-1.85l-.89-2.23c-.29-.73-1.02-1.32-1.85-1.05-.7.23-1.36,1.06-1.05,1.85h0Z"/>
  </g>
  <g>
    <path class="cls-2" d="M507.39,262.37c-1.57,1.66-3.47,1.84-5.07,1.18-.21.21-.42.42-.62.63-3.22,3.3-6.43,6.6-9.65,9.9l19.54-14.16c-.65-.27-1.33-.38-2.02-.38-.6.98-1.33,1.92-2.18,2.83Z"/>
    <path class="cls-1" d="M506.33,261.31l-3.61.79c-.51-.15-1.09.01-1.46.39-3.45,3.49-6.85,7.02-10.27,10.53-1.14,1.17.39,3.39,1.82,2.36,6.51-4.72,13.03-9.44,19.54-14.16,1.02-.74.96-2.36-.36-2.74-.99-.29-1.39-.34-2.42-.43-.54-.05-1.02.32-1.3.74-.55.91-1.2,1.75-1.94,2.52-1.28,1.44.84,3.57,2.12,2.12.78-.88,1.41-2.45,2.74-2.06l-.36-2.74c-6.51,4.72-13.03,9.44-19.54,14.16l1.82,2.36c1.61-1.65,3.22-3.3,4.83-4.95,1.08-1.11,3.41-4.53,4.82-4.95.51-.15,1.39.18,1.98.11,1.53-.19,2.56-.95,3.71-1.91,1.48-1.25-.65-3.36-2.12-2.12Z"/>
  </g>
  <g>
    <path class="cls-2" d="M289.11,413.37c2.37.75,4.7,1.63,6.97,2.64"/>
    <path class="cls-1" d="M288.71,414.82c2.25.72,4.45,1.54,6.61,2.49,1.75.77,3.28-1.81,1.51-2.59-2.4-1.06-4.83-1.99-7.33-2.79-1.84-.59-2.63,2.31-.8,2.89h0Z"/>
  </g>
  <g>
    <path class="cls-2" d="M250.81,409.2l9.69,2.19c-.38-.22-.75-.44-1.13-.65-2.62-1.45-5.75-2.58-8.56-1.54Z"/>
    <path class="cls-1" d="M250.41,410.65c3.23.73,6.46,1.46,9.69,2.19,1.62.37,2.67-1.86,1.16-2.74-3.31-1.93-6.99-3.55-10.84-2.34-1.84.58-1.05,3.47.8,2.89,3.06-.96,5.93.52,8.53,2.04l1.16-2.74c-3.23-.73-6.46-1.46-9.69-2.19-1.88-.42-2.68,2.47-.8,2.89Z"/>
  </g>
  <g>
    <path class="cls-2" d="M260.49,411.39c.37.22.74.43,1.1.65.03,0,.05,0,.08-.01,1.25-.06,2.67.6,3.54,1.46.16.16.29.36.42.54.59.21,1.19.38,1.81.48,2.56.43,5.24-.19,7.77.2l-14.73-3.33Z"/>
    <path class="cls-1" d="M259.74,412.69c.87.51,1.38.6,2.26.8,1.6.37,2.25,1.61,3.69,2.13,3.01,1.11,6.41.26,9.53.6,1.68.18,2.03-2.58.4-2.95-4.91-1.11-9.82-2.22-14.73-3.33-1.88-.42-2.68,2.47-.8,2.89,4.91,1.11,9.82,2.22,14.73,3.33l.4-2.95c-3.27-.35-6.72.69-9.52-1.27-.76-.53-1.56-.99-2.47-1.21-.49-.12-1.08-.05-1.55-.2-.99-.31,1.02.42-.43-.43-1.67-.98-3.18,1.61-1.51,2.59Z"/>
  </g>
  <g>
    <path class="cls-2" d="M231.95,366.04c-11.18.74-22.21,3.61-32.33,8.42"/>
    <path class="cls-1" d="M231.95,364.54c-11.54.88-22.58,3.76-33.08,8.62-1.75.81-.23,3.4,1.51,2.59,10-4.63,20.58-7.38,31.57-8.21,1.91-.15,1.93-3.15,0-3h0Z"/>
  </g>
  <g>
    <path class="cls-2" d="M242.48,245.53c-2.89-1.31-5.46-2.95-7.33-5.66,0,0,0,0,0,0-2.24-.34-4.57-.15-6.84.05l14.29,5.91c-.02-.08-.05-.16-.07-.24-.01-.02-.03-.04-.04-.06Z"/>
    <path class="cls-1" d="M243.24,244.23c-1.28-.6-2.55-1.24-3.71-2.06-1.29-.92-2.03-2.25-3.2-3.21-1.88-1.54-5.76-.74-8.02-.55-1.75.15-1.96,2.3-.4,2.95,4.76,1.97,9.52,3.94,14.29,5.91,1.09.45,2.14-.84,1.85-1.85-.06-.21-.13-.47-.26-.65-1.11-1.56-3.71-.06-2.59,1.51l-.04-.07,1.85-1.85c-4.76-1.97-9.52-3.94-14.29-5.91l-.4,2.95c2.3-.2,4.54-.32,6.84-.05l-1.3-.74c1.7,2.89,4.94,4.82,7.87,6.2,1.74.81,3.26-1.77,1.51-2.59Z"/>
  </g>
  <g>
    <path class="cls-2" d="M226.45,339.57c.25,3.63,4.86,6.14,8.05,4.39"/>
    <path class="cls-1" d="M224.95,339.57c.54,4.85,5.88,7.88,10.3,5.68,1.73-.86.21-3.45-1.51-2.59-2.25,1.12-5.5-.55-5.79-3.09-.21-1.9-3.22-1.92-3,0h0Z"/>
  </g>
  <path class="cls-1" d="M477.72,105.8c2.99,6.12,5.07,12.52,6.48,19.19,1.6,7.55,13.17,4.36,11.57-3.19-1.62-7.68-4.25-15-7.69-22.05-3.39-6.94-13.74-.86-10.36,6.06h0Z"/>
  <path class="cls-1" d="M650.69,106.08c2.48,5.51,3.18,11.38,2.69,17.35-.63,7.7,11.38,7.66,12,0,.67-8.18-.98-15.97-4.33-23.41-1.34-2.98-5.61-3.63-8.21-2.15-3.06,1.74-3.47,5.27-2.15,8.21h0Z"/>
  <g>
    <path class="cls-2" d="M261.75,308.34l-4.63.5c-.45.05-.9.1-1.32.27-.53.21-.96.6-1.41.95-1.3,1.02-2.77,1.78-4.24,2.54"/>
    <path class="cls-1" d="M261.75,305.84l-3.53.38c-1.36.15-2.71.2-3.94.85-.55.29-1.03.72-1.51,1.1-.21.17-.2.16.03-.02-.11.08-.22.16-.33.24-.23.16-.45.31-.69.45-.93.59-1.91,1.09-2.89,1.6-1.16.6-1.6,2.33-.9,3.42.77,1.19,2.18,1.54,3.42.9.92-.47,1.84-.95,2.72-1.49.41-.25.81-.52,1.2-.8.33-.24.66-.5.98-.76.22-.17.2-.16-.06.04.08-.06.15-.11.23-.16.08-.05.16-.1.24-.15.25-.13.22-.12-.08.02.12-.04.25-.07.37-.1.28-.05.25-.05-.09,0,.11-.07.51-.06.63-.07l.88-.1,3.31-.36c1.3-.14,2.56-1.05,2.5-2.5-.06-1.23-1.11-2.65-2.5-2.5h0Z"/>
  </g>
  <g>
    <path class="cls-2" d="M237.82,318.11c.54.51,1.36.69,2.07.46"/>
    <path class="cls-1" d="M236.05,319.88c.22.2.47.39.71.56.08.05.16.1.24.15.27.14.56.25.84.36.09.03.19.06.29.08.3.07.61.1.91.13.1.01.2.01.3,0,.31-.01.61-.07.91-.11.1-.02.2-.04.3-.07.33-.08.61-.23.85-.45.27-.18.49-.41.64-.7.18-.29.28-.6.3-.93.07-.33.06-.66-.04-1l-.25-.6c-.22-.38-.52-.67-.9-.9l-.6-.25c-.44-.12-.89-.12-1.33,0-.12.04-.24.07-.37.08l.66-.09c-.19.02-.37.02-.56,0l.66.09c-.19-.03-.37-.08-.54-.15l.6.25c-.16-.07-.32-.16-.46-.27l.51.39s-.1-.08-.14-.12c-.23-.24-.49-.42-.8-.52-.3-.16-.62-.23-.96-.22-.34-.01-.67.06-.96.22-.31.1-.58.27-.8.52l-.39.51c-.23.39-.34.81-.34,1.26l.09.66c.12.42.33.79.64,1.1h0Z"/>
  </g>
  <g>
    <path class="cls-2" d="M278.73,255.66l-1.82.41"/>
    <path class="cls-1" d="M278.06,253.25l-1.82.41c-.33.08-.61.23-.85.45-.27.18-.49.41-.64.7-.18.29-.28.6-.3.93-.07.33-.06.66.04,1l.25.6c.22.38.52.67.9.9l.6.25c.44.12.89.12,1.33,0l1.82-.41c.33-.08.61-.23.85-.45.27-.18.49-.41.64-.7.18-.29.28-.6.3-.93.07-.33.06-.66-.04-1l-.25-.6c-.22-.38-.52-.67-.9-.9l-.6-.25c-.44-.12-.89-.12-1.33,0h0Z"/>
  </g>
  <g>
    <path class="cls-2" d="M284.6,275.9c.45-.59.75-1.3.84-2.03"/>
    <path class="cls-1" d="M286.76,277.17c.36-.47.58-1.01.81-1.56s.3-1.14.37-1.74c.01-.34-.06-.67-.22-.96-.1-.31-.27-.58-.52-.8-.23-.24-.49-.42-.8-.52-.3-.16-.62-.23-.96-.22l-.66.09c-.42.12-.79.33-1.1.64l-.39.51c-.23.39-.34.81-.34,1.26v.03c.03-.22.06-.44.08-.66-.05.37-.15.73-.29,1.07l.25-.6c-.14.33-.32.64-.54.93-.18.29-.28.6-.3.93-.07.33-.06.66.04,1,.08.33.23.61.45.85.18.27.41.49.7.64l.6.25c.44.12.89.12,1.33,0l.6-.25c.38-.22.67-.52.9-.9h0Z"/>
  </g>
  <path class="cls-1" d="M240.11,344.92c-.17,2.82.29,5.72,1.37,8.33.26.63.54,1.14,1.15,1.49.54.31,1.33.45,1.93.25s1.19-.57,1.49-1.15.5-1.32.25-1.93c-.57-1.38-.96-2.83-1.16-4.31l.09.66c-.14-1.11-.18-2.23-.12-3.35.08-1.31-1.21-2.56-2.5-2.5-1.42.06-2.42,1.1-2.5,2.5h0Z"/>
  <path class="cls-1" d="M238.72,366.11l-.63.29,3.03,3.93c2.08-2.67,4.07-5.41,5.85-8.29.87-1.41,1.51-2.92,1.37-4.61s-.98-3.29-1.91-4.74c-1.25-1.95-3.77-1.36-4.57.6-.57,1.38-.53,2.89-.57,4.36-.01.51,0,.82-.19,1.34-.06.14-.35.42-.1.33l1.33,4.82c1.8-.65,2.25-2.05,2.59-3.78s.56-3.49.72-5.25c.29-3.31.27-6.63.26-9.95l-4.27,1.77c2.79,2.72,4.68,6.33,5.18,10.21.21,1.63.39,3.51-.8,4.79s-3.05,2.03-4.67,2.71c-1.24.53-1.52,2.36-.9,3.42.75,1.29,2.17,1.43,3.42.9,2.13-.9,4.34-1.96,5.9-3.73,1.92-2.19,2.35-4.89,2.08-7.71-.5-5.35-2.83-10.36-6.69-14.12-1.54-1.5-4.28-.42-4.27,1.77.01,2.66.03,5.31-.12,7.97-.07,1.25-.16,2.5-.32,3.74-.07.58-.17,1.16-.27,1.73-.07.36-.14.72-.21,1.08-.1.49-.44.85.15.21l1.1-.64-.22.08c-1.27.46-2.12,1.7-1.75,3.08.34,1.23,1.8,2.2,3.08,1.75,1.92-.68,3.17-2.15,3.68-4.13.45-1.77-.02-3.69.67-5.39l-4.57.6c.47.73,1.21,1.68,1.26,2.59.05.98-.9,2.02-1.41,2.81-1.36,2.12-2.82,4.2-4.37,6.18-1.75,2.24.35,5.15,3.03,3.93l.63-.29c1.23-.56,1.53-2.34.9-3.42-.74-1.26-2.19-1.46-3.42-.9h0Z"/>
  <path class="cls-1" d="M228.03,341.21c.26.08.52.17.78.28l-.6-.25c.57.24,1.1.55,1.59.93l-.51-.39c.49.38.92.81,1.3,1.29l-.39-.51c.14.18.28.38.4.57l3.93-3.03c-.72-.59-1.44-1.18-2.16-1.78-.23-.24-.49-.42-.8-.52-.3-.16-.62-.23-.96-.22-.61,0-1.35.27-1.77.73s-.76,1.1-.73,1.77c.03.63.23,1.35.73,1.77.72.6,1.44,1.19,2.16,1.78.23.24.49.42.8.52.3.16.62.23.96.22l.66-.09c.33-.08.61-.23.85-.45.41-.32.78-.78.9-1.3.15-.64.11-1.35-.25-1.93-1.29-2.03-3.26-3.54-5.56-4.22-.62-.18-1.38-.07-1.93.25-.52.3-1.01.9-1.15,1.49-.15.64-.11,1.36.25,1.93s.85.96,1.49,1.15h0Z"/>
  <path class="cls-1" d="M241.19,361.91c-2.39.72-4.07,2.37-6.17,3.61s-4.5,1.41-6.85,1.53c-2.63.13-5.25.23-7.83.77-2.77.58-5.44,1.61-7.94,2.93-2.85,1.51-.32,5.82,2.52,4.32,2.26-1.2,4.66-2.03,7.18-2.51s4.9-.4,7.35-.58,5.06-.59,7.38-1.75c1.98-.99,3.54-2.86,5.68-3.5,3.07-.92,1.76-5.75-1.33-4.82h0Z"/>
  <path class="cls-1" d="M327.51,277.38c2.51,1.51,4.99,3.09,7.47,4.63,1.11.69,2.8.27,3.42-.9s.29-2.68-.9-3.42c-2.49-1.55-4.96-3.12-7.47-4.63-1.12-.68-2.8-.29-3.42.9s-.3,2.7.9,3.42h0Z"/>
  <path class="cls-1" d="M320.99,308.95l-8.42-1.42c-.68-.12-1.31-.11-1.93.25-.52.3-1.01.9-1.15,1.49-.28,1.21.37,2.84,1.75,3.08,2.81.47,5.61.95,8.42,1.42.68.12,1.31.11,1.93-.25.52-.3,1.01-.9,1.15-1.49.28-1.21-.37-2.84-1.75-3.08h0Z"/>
  <path class="cls-1" d="M343.56,420.92l.04.03-.51-.39c.1.08.19.17.27.27l-.39-.51c.08.1.14.21.2.33l-.25-.6c.05.12.08.24.1.37l-.09-.66v.05c0,.45.12.87.35,1.26.16.29.37.53.64.7.24.22.52.37.85.45.44.12.89.12,1.33,0,.84-.25,1.69-.51,2.53-.76.61-.18,1.17-.59,1.49-1.15.18-.29.28-.6.3-.93.07-.33.06-.66-.04-1-.2-.6-.57-1.19-1.15-1.49s-1.27-.45-1.93-.25c-.84.25-1.69.51-2.53.76l3.16,2.41c-.08-.7-.17-1.23-.54-1.85-.15-.26-.36-.51-.56-.74-.21-.24-.51-.44-.76-.61-.29-.18-.6-.28-.93-.3-.33-.07-.66-.06-1,.04-.33.08-.61.23-.85.45-.27.18-.49.41-.64.7-.31.58-.46,1.28-.25,1.93l.25.6c.22.38.52.67.9.9h0Z"/>
  <path class="cls-1" d="M343.92,416.26c1.08-1.68,2.15-3.37,3.23-5.05.34-.53.42-1.33.25-1.93s-.61-1.21-1.15-1.49c-1.24-.65-2.67-.28-3.42.9l-3.23,5.05c-.34.53-.42,1.33-.25,1.93s.61,1.21,1.15,1.49c1.24.65,2.67.28,3.42-.9h0Z"/>
  <path class="cls-1" d="M144.91,405.91c2.16,1.79,4.67,2.69,7.37,3.29,2.96.66,5.93,1.28,8.9,1.91,6.11,1.31,12.3,2.62,18.58,2.53,3.21-.05,3.22-5.05,0-5-5.7.08-11.25-1.06-16.79-2.25-2.7-.58-5.4-1.16-8.11-1.74-2.16-.46-4.67-.82-6.43-2.28-1.04-.86-2.52-1.02-3.54,0-.89.89-1.04,2.67,0,3.54h0Z"/>
  <path class="cls-1" d="M264.82,266.83c.72-.32,1.36-.74,1.98-1.23s1.2-.99,1.69-1.6c.43-.53.73-1.06.73-1.77,0-.61-.27-1.35-.73-1.77s-1.1-.76-1.77-.73-1.24.28-1.77.73c-1.22,1.05-1.74,2.58-2.68,3.83l.39-.51c-.28.36-.59.67-.95.95l.51-.39c-.34.25-.7.47-1.09.64l.6-.25c-.31.13-.63.23-.96.3-.59.13-1.2.64-1.49,1.15-.31.54-.45,1.33-.25,1.93s.57,1.19,1.15,1.49c.62.32,1.24.4,1.93.25.75-.16,1.5-.47,2.16-.86s1.32-.91,1.81-1.51.9-1.21,1.28-1.87c.29-.51.57-1.02.92-1.48l-.39.51c.18-.23.38-.45.61-.64l-3.54-3.54c-.43.52-.91.99-1.44,1.4l.51-.39c-.54.41-1.11.75-1.73,1.03-.54.24-1,.95-1.15,1.49-.16.6-.09,1.4.25,1.93s.86,1,1.49,1.15l.66.09c.45,0,.87-.12,1.26-.34h0Z"/>
  <path class="cls-1" d="M547.64,312.05c.58-1.1,1.16-2.19,1.75-3.29.31-.59.43-1.27.25-1.93-.08-.33-.23-.61-.45-.85-.18-.27-.41-.49-.7-.64-.58-.31-1.28-.46-1.93-.25-.61.2-1.19.57-1.49,1.15-.58,1.1-1.16,2.19-1.75,3.29-.31.59-.43,1.27-.25,1.93.08.33.23.61.45.85.18.27.41.49.7.64.58.31,1.28.46,1.93.25.61-.2,1.19-.57,1.49-1.15h0Z"/>
  <path class="cls-1" d="M549.27,381.82c5.07-.53,10.51,2.1,14.26,5.31l1.77-4.27c-3.04-.23-5.96-1.33-8.83-2.27-3.07-1.01-6.13-2.01-9.2-3.02-1.28-.42-2.73.49-3.08,1.75-.37,1.36.46,2.65,1.75,3.08,3.18,1.04,6.36,2.09,9.54,3.13s6.41,2.08,9.81,2.34c2.1.16,3.38-2.89,1.77-4.27-2.47-2.13-5.19-3.78-8.2-5.02s-6.34-2.1-9.59-1.76c-1.34.14-2.5,1.05-2.5,2.5,0,1.24,1.15,2.64,2.5,2.5h0Z"/>
  <path class="cls-1" d="M697.39,406.04h2.7c.34.01.67-.06.96-.22.31-.1.58-.27.8-.52.24-.23.42-.49.52-.8.16-.3.23-.62.22-.96l-.09-.66c-.12-.42-.33-.79-.64-1.1-.49-.45-1.09-.73-1.77-.73h-2.7c-.34-.01-.67.06-.96.22-.31.1-.58.27-.8.52-.24.23-.42.49-.52.8-.16.3-.23.62-.22.96l.09.66c.12.42.33.79.64,1.1.49.45,1.09.73,1.77.73h0Z"/>
  <path class="cls-1" d="M255.97,273.28c0-.75-.12-1.52-.4-2.22-.24-.6-.55-1.18-1.15-1.49s-1.23-.38-1.93-.25c-.93.17-1.77.76-2.33,1.5-.33.43-.54.83-.72,1.36-.1.28-.15.57-.26.85l.25-.6c-.38.87-.93,1.68-1.41,2.5-.5.86-1,1.72-1.5,2.58-.66,1.13-.3,2.79.9,3.42s2.72.31,3.42-.9c.61-1.06,1.23-2.12,1.84-3.18.29-.5.6-1,.87-1.51.21-.38.39-.79.52-1.21.09-.26.14-.53.24-.78l-.25.6c.06-.13.13-.24.21-.35l-.39.51c.09-.11.18-.2.29-.29l-.51.39c.11-.08.23-.15.35-.21l-.6.25c.13-.05.26-.09.39-.11l-3.08-1.75c.12.31.21.62.26.94l-.09-.66c.03.2.04.41.04.61.01,1.31,1.14,2.56,2.5,2.5s2.51-1.1,2.5-2.5h0Z"/>
  <path class="cls-1" d="M320.08,308.24c-2.45-1.3-5.18-1.42-7.89-1.38-1.31.02-2.56,1.14-2.5,2.5s1.1,2.52,2.5,2.5c1.22-.02,2.43-.02,3.64.13l-.66-.09c.82.11,1.62.3,2.38.62l-.6-.25c.21.09.41.19.61.29.59.31,1.27.43,1.93.25.58-.16,1.21-.61,1.49-1.15.61-1.16.34-2.77-.9-3.42h0Z"/>
</svg>